
<svg width="200" height="75" viewBox="0 0 200 75" fill="none" xmlns="http://www.w3.org/2000/svg">
<path fill-rule="evenodd" clip-rule="evenodd" d="M65.6993 0.718432C64.8274 1.09543 63.4555 2.26075 62.6507 3.30848L61.1879 5.21316L61.0452 35.029C60.8856 68.2322 60.8018 67.3112 64.3407 71.2018C66.6748 73.7686 69.7788 74.9107 73.4076 74.5388C77.0852 74.1618 79.1226 72.9187 80.997 69.9078L82.5278 67.4495L82.6737 43.3104C82.8185 19.3151 82.8129 19.1712 81.7845 19.1712C80.7582 19.1712 80.7495 19.3671 80.7495 42.5321C80.7495 65.7557 80.7429 65.9061 79.6063 68.1409C78.9778 69.3774 77.6629 70.9212 76.6848 71.5727C75.1895 72.568 74.4106 72.7259 71.7918 72.566C68.0177 72.3353 65.6434 70.7774 64.0343 67.4752C62.9861 65.3247 62.9663 64.7322 62.9663 35.7053V6.12664L64.3396 4.50559C66.8725 1.51533 70.2574 0.807761 73.9838 2.48786C77.7746 4.19773 77.701 3.68094 77.701 28.5079C77.701 53.4288 77.7579 53.0281 74.092 54.0087C71.6831 54.6527 69.5369 54.1081 67.688 52.3826L66.5229 51.295V35.2334C66.5229 19.4044 66.5077 19.1712 65.4869 19.1712C64.4621 19.1712 64.4524 19.3544 64.5977 35.566L64.7446 51.9602L66.624 53.8265C68.2799 55.4707 68.8601 55.7186 71.4966 55.9078C75.0746 56.1647 77.2635 55.2361 78.7375 52.8343C79.6825 51.2955 79.7298 50.1433 79.7308 28.5079C79.7318 2.59889 79.8202 3.19846 75.6879 1.12874C73.0545 -0.190506 68.257 -0.387334 65.6993 0.718432ZM121.905 0.747199C120.089 1.14943 116.443 2.53883 113.804 3.83487C105.213 8.05252 97.983 16.4106 94.6423 25.9845C93.3477 29.6934 93.2324 30.6382 93.2247 37.5923C93.2166 44.8875 93.2745 45.314 94.8247 49.3318C100.663 64.4612 114.258 74.6846 128.764 74.8532C133.368 74.9062 135.145 74.2284 137.418 71.5505C142.868 65.1304 139.995 56.0143 131.811 53.7558C130.275 53.3319 127.762 52.6385 126.226 52.2145C121.693 50.9639 117.991 46.8709 116.08 40.9989C115.437 39.02 114.971 38.3493 114.243 38.3493C113.003 38.3493 112.992 39.7336 114.203 43.215C115.352 46.5151 118.493 50.6273 121.258 52.4492C122.583 53.3223 125.273 54.2933 128.278 54.9827C133.927 56.2798 136.063 57.7605 137.436 61.3312C138.958 65.2889 137.127 70.0905 133.433 71.8321C129.465 73.702 122.109 72.6018 114.792 69.0438C111.308 67.35 109.638 66.105 106.154 62.608C101.18 57.6142 99.0236 54.2434 96.915 48.1674C89.7382 27.4854 103.587 6.1009 126.462 2.54338C130.633 1.89485 132.845 2.46111 135.078 4.74935C138.193 7.94149 137.603 12.9868 133.828 15.4436C133.093 15.9216 130.446 16.5928 127.944 16.9345C122.182 17.7213 118.661 19.3984 115.457 22.8832C110.733 28.0214 108.549 34.7736 109.634 40.8889C110.452 45.5022 112.405 49.0789 116.369 53.2244C121.362 58.4454 121.806 60.4808 118.514 63.0622C116.517 64.6273 112.821 64.3123 109.795 62.3198C105.334 59.3826 100.07 50.1261 98.611 42.6568C97.9388 39.2133 97.5928 38.3523 96.8815 38.3508C96.2144 38.3498 95.9954 38.7586 96.0045 39.9895C96.067 48.1917 104.11 62.2492 110.632 65.5539C113.1 66.805 116.749 66.9372 118.862 65.8516C120.624 64.9467 122.921 61.2701 122.921 59.3553C122.921 57.2038 121.155 54.3039 117.272 50.0802C112.206 44.5701 111.996 44.0916 112.004 38.097C112.01 33.6517 112.178 32.6933 113.415 30.0573C116.487 23.5095 121.006 20.2397 128.51 19.1349C130.606 18.8265 133.26 18.1674 134.408 17.6708C140.873 14.8744 141.549 5.5947 135.575 1.66775C133.834 0.523624 132.869 0.289954 129.361 0.164288C127.009 0.0800051 123.775 0.332852 121.905 0.747199ZM170.174 0.647272C155.615 4.79074 148.746 20.2472 155.559 33.5321C156.89 36.1277 161.616 41.0322 164.281 42.5836C166.782 44.0396 170.851 45.2327 174.92 45.7041C179.091 46.1866 180.421 47.4251 180.729 51.1113C180.949 53.7493 180.856 54.0597 179.42 55.4869C176.315 58.5705 172.707 56.9641 169.524 51.082C168.384 48.9765 166.763 46.825 165.719 46.0351C164.064 44.7805 163.51 44.6579 159.507 44.6579C155.66 44.6579 154.875 44.8153 153.222 45.9196C152.184 46.6135 150.637 48.2033 149.785 49.4524C148.316 51.6079 148.248 51.9294 148.448 55.7609C148.703 60.6524 150.261 64.2619 153.811 68.1883C156.543 71.2104 161.927 75.3231 162.605 74.9067C163.615 74.2869 162.913 73.2937 159.951 71.1513C156.682 68.7869 153.049 64.8741 151.752 62.3219C150.348 59.5592 149.728 55.3108 150.378 52.9115C151.408 49.1142 155.7 45.9332 159.809 45.9226C161.304 45.9186 164.163 46.9279 165.214 47.8308C165.701 48.2482 166.993 50.2033 168.086 52.1752C170.457 56.4549 171.983 57.9745 174.469 58.5312C176.958 59.0888 179.316 58.3651 181.127 56.4882C182.488 55.0776 182.622 54.6229 182.622 51.4464C182.622 48.1235 182.536 47.8692 180.829 46.1739C179.213 44.5685 178.567 44.3172 174.296 43.6308C165.697 42.2495 160.476 38.6884 157.099 31.9009C155.252 28.189 155.185 27.8705 155.185 22.7303C155.185 17.7566 155.293 17.1883 156.813 14.1244C160.73 6.23212 169.291 0.949578 177.005 1.66522C184.718 2.38036 192.065 7.49787 194.397 13.7792C195.337 16.3137 195.203 20.2119 194.112 21.9874C193.114 23.613 190.331 25.2275 188.526 25.2275C186.12 25.2275 183.416 23.5953 181.294 20.8625C178.52 17.2913 177.536 16.6478 174.849 16.6478C173.081 16.6478 172.338 16.9441 171.151 18.123C169.896 19.3696 169.666 19.9989 169.666 22.1847C169.666 25.5116 171.09 26.954 175.174 27.7655C181.335 28.9899 182.714 29.3674 185.333 30.5489C190.497 32.8785 194.676 37.2476 196.632 42.3615C202.304 57.1882 192.797 71.6323 176.463 73.0055C173.552 73.2503 172.116 73.0903 169.128 72.189C164.258 70.7198 162.044 68.6612 162.044 65.6023C162.044 63.8647 162.356 63.1733 163.772 61.7667C165.781 59.7712 166.531 59.697 172.453 60.9077C175.983 61.6294 176.981 61.6648 178.776 61.1303C181.937 60.1896 184.75 57.4239 185.668 54.3514C186.669 51.0018 186.635 50.4617 185.417 50.4617C184.729 50.4617 184.401 50.7984 184.401 51.5039C184.401 52.0767 183.919 53.6579 183.33 55.0175C181.488 59.271 177.075 60.5888 170.682 58.7951C167.419 57.8791 167.351 57.8806 165.009 58.9122C160.2 61.0304 158.758 66.9059 162.159 70.5265C166.502 75.1505 178.127 75.9802 186.172 72.2404C190.63 70.1687 195.618 65.4196 197.618 61.3443C201.898 52.6228 200.301 41.7736 193.706 34.768C189.117 29.8928 184.84 27.7115 178.023 26.7698C175.828 26.4665 173.511 25.879 172.873 25.4642C169.36 23.1779 172.233 17.1414 176.234 18.4026C176.813 18.5853 178.339 20.0252 179.625 21.6023C182.73 25.4097 184.959 26.7355 188.263 26.739C194.027 26.7446 197.936 21.3434 196.568 15.2609C195.392 10.0274 190.948 5.15209 184.645 2.17899C181.464 0.678562 180.162 0.354554 176.653 0.19154C174.146 0.0749582 171.541 0.258159 170.174 0.647272ZM5.27685 1.44669C2.98636 2.47978 0.635414 4.97041 0.154758 6.87257C-0.0190102 7.56045 -0.0515281 9.25923 0.0831166 10.6476C0.276192 12.6467 0.685715 13.543 2.05045 14.9531C4.68187 17.6728 6.00901 18.1619 10.7597 18.1619C13.3819 18.1619 15.235 18.393 15.612 18.7675C16.0591 19.2116 16.2217 23.394 16.2217 34.438C16.2217 50.9089 16.2593 51.1481 19.2545 53.6514C22.4941 56.3595 27.6482 55.7297 30.1612 52.3185C31.1561 50.9685 31.2186 50.1221 31.3659 36.0424C31.5194 21.3424 31.5102 21.19 30.4767 21.19C29.4468 21.19 29.4321 21.3964 29.4321 35.6068C29.4321 44.9688 29.2395 50.3805 28.8834 51.0421C28.107 52.4835 25.1042 53.6206 23.1551 53.2118C22.2761 53.0271 21.013 52.3896 20.3479 51.7951C17.8999 49.6058 17.746 48.4874 17.746 32.8921C17.746 15.6803 18.0833 16.6544 12.1168 16.6367C9.50316 16.6291 7.68673 16.3284 6.19751 15.6566C1.06577 13.3431 0.506867 6.73832 5.16303 3.4397L6.82196 2.26428H24.4411C41.5161 2.26428 42.104 2.29658 43.4946 3.31908C45.4066 4.72513 46.3125 6.69542 46.347 9.52217C46.3836 12.5796 45.0605 15.0253 42.8793 15.9307C41.9068 16.3339 39.4842 16.6478 37.3416 16.6478C34.0959 16.6478 33.4547 16.7922 33.0065 17.6239C32.6651 18.2578 32.4807 27.0787 32.4807 42.7835V66.967L31.3375 68.6355C29.3843 71.4864 27.6797 72.4156 24.404 72.4156C20.6731 72.4156 17.8466 70.7027 16.2832 67.4949C15.2355 65.3449 15.2055 64.6717 15.2055 43.2367C15.2055 21.5266 15.1897 21.19 14.1893 21.19C13.1879 21.19 13.1731 21.5226 13.1843 43.7747C13.1945 64.5334 13.2702 66.5224 14.1212 68.3781C15.3467 71.0514 18.7027 73.9912 21.3311 74.6942C25.1301 75.7107 30.3736 74.0957 32.3801 71.2916C34.3682 68.5138 34.5075 66.6354 34.51 42.5745C34.5125 24.5633 34.6568 19.1788 35.1482 18.7831C35.4977 18.5015 37.5484 18.1856 39.7058 18.0811C43.4641 17.8994 43.7121 17.8101 45.6306 15.9498C48.0568 13.5965 48.982 10.631 48.2707 7.48727C47.6269 4.63984 46.3262 2.99254 43.6486 1.63343C41.4582 0.521605 41.0517 0.497885 24.3705 0.508988C8.93715 0.519081 7.13647 0.607401 5.27685 1.44669Z" fill="#919191"/>
</svg>
